<?xml version="1.0" encoding="utf-8"?>
<!-- Generator: Adobe Illustrator 27.5.0, SVG Export Plug-In . SVG Version: 6.00 Build 0)  -->
<svg version="1.1" xmlns="http://www.w3.org/2000/svg" xmlns:xlink="http://www.w3.org/1999/xlink" x="0px" y="0px"
	 viewBox="0 0 500 500" style="enable-background:new 0 0 500 500;" xml:space="preserve">
<g id="BACKGROUND">
	<rect style="fill:#E6EFF4;" width="500" height="500"/>
</g>
<g id="OBJECTS">
	<g>
		<g>
			<g>
				<linearGradient id="SVGID_1_" gradientUnits="userSpaceOnUse" x1="342.1255" y1="405.2077" x2="195.9141" y2="258.9963">
					<stop  offset="0" style="stop-color:#303F9F"/>
					<stop  offset="1" style="stop-color:#8C9EFF"/>
				</linearGradient>
				<path style="fill:url(#SVGID_1_);" d="M359.181,269.445c-14.676,0-27.777-6.731-36.394-17.271
					c-8.617,10.54-21.718,17.271-36.394,17.271c-14.676,0-27.777-6.731-36.394-17.271c-8.617,10.54-21.718,17.271-36.394,17.271
					c-14.676,0-27.777-6.731-36.394-17.271c-8.617,10.54-21.718,17.271-36.394,17.271c-6.193,0-12.1-1.21-17.515-3.387v95.045
					c0,5.412,4.388,9.8,9.8,9.8h237.28c5.412,0,9.799-4.387,9.799-9.8v-96.615C373.861,267.654,366.732,269.445,359.181,269.445z"/>
				
					<linearGradient id="SVGID_00000097463819550846714130000005894515712837505686_" gradientUnits="userSpaceOnUse" x1="490.4862" y1="452.2704" x2="163.2655" y2="125.0498" gradientTransform="matrix(-1 0 0 1 500 0)">
					<stop  offset="0" style="stop-color:#303F9F"/>
					<stop  offset="1" style="stop-color:#8C9EFF"/>
				</linearGradient>
				<path style="fill:url(#SVGID_00000097463819550846714130000005894515712837505686_);" d="M102.702,223.728
					c0.645,19.781,16.665,35.981,36.438,36.83c17.807,0.764,33.058-10.69,38.072-26.674c4.856,15.479,19.312,26.71,36.394,26.71
					s31.538-11.231,36.394-26.71c4.856,15.479,19.312,26.71,36.394,26.71c17.081,0,31.538-11.231,36.394-26.71
					c5.014,15.984,20.265,27.438,38.072,26.674c19.773-0.848,35.793-17.049,36.438-36.83c0.28-8.592-2.291-16.566-6.828-23.066
					l-41.566-63.139c-3.463-5.26-9.338-8.426-15.636-8.426H250h-83.268c-6.298,0-12.173,3.166-15.636,8.426l-41.566,63.139
					C104.993,207.163,102.422,215.137,102.702,223.728z"/>
				
					<linearGradient id="SVGID_00000093888675700344971550000015275475306289450393_" gradientUnits="userSpaceOnUse" x1="159.1079" y1="120.8922" x2="370.8196" y2="332.6039">
					<stop  offset="0" style="stop-color:#8C9EFF"/>
					<stop  offset="1" style="stop-color:#303F9F"/>
				</linearGradient>
				<path style="fill:url(#SVGID_00000093888675700344971550000015275475306289450393_);" d="M102.702,223.728
					c0.645,19.781,16.665,35.981,36.438,36.83c17.807,0.764,33.058-10.69,38.072-26.674c4.856,15.479,19.312,26.71,36.394,26.71
					s31.538-11.231,36.394-26.71c4.856,15.479,19.312,26.71,36.394,26.71c17.081,0,31.538-11.231,36.394-26.71
					c5.014,15.984,20.265,27.438,38.072,26.674c19.773-0.848,35.793-17.049,36.438-36.83c0.28-8.592-2.291-16.566-6.828-23.066
					l-41.566-63.139c-3.463-5.26-9.338-8.426-15.636-8.426H250h-83.268c-6.298,0-12.173,3.166-15.636,8.426l-41.566,63.139
					C104.993,207.163,102.422,215.137,102.702,223.728z"/>
				<g>
					<g>
						<g>
							
								<linearGradient id="SVGID_00000090256073364616004530000014390246993538299307_" gradientUnits="userSpaceOnUse" x1="301.6394" y1="370.6667" x2="301.6394" y2="298.4171">
								<stop  offset="0.0104" style="stop-color:#512DA8"/>
								<stop  offset="1" style="stop-color:#9575CD"/>
							</linearGradient>
							<path style="fill:url(#SVGID_00000090256073364616004530000014390246993538299307_);" d="M351.535,313.963v56.941h-99.791
								v-56.941c0-8.75,7.093-15.844,15.844-15.844h68.104C344.442,298.119,351.535,305.213,351.535,313.963z"/>
							
								<linearGradient id="SVGID_00000140695052045629638920000013711479373697685412_" gradientUnits="userSpaceOnUse" x1="334.2726" y1="370.9037" x2="334.2726" y2="303.7947">
								<stop  offset="0" style="stop-color:#FFFFFF"/>
								<stop  offset="1" style="stop-color:#AEBBFF"/>
							</linearGradient>
							<path style="fill:url(#SVGID_00000140695052045629638920000013711479373697685412_);" d="M345.86,315.382v55.522h-23.174
								v-55.522c0-6.399,5.188-11.587,11.587-11.587l0,0C340.672,303.795,345.86,308.982,345.86,315.382z"/>
						</g>
						<g>
							
								<linearGradient id="SVGID_00000069399871676921062030000005733504675816153248_" gradientUnits="userSpaceOnUse" x1="251.7439" y1="283.3333" x2="251.7439" y2="370.9791">
								<stop  offset="0" style="stop-color:#303F9F"/>
								<stop  offset="1" style="stop-color:#1A237E"/>
							</linearGradient>
							<path style="fill:url(#SVGID_00000069399871676921062030000005733504675816153248_);" d="M301.639,298.496v72.407h-99.791
								v-72.407c0-8.75,7.093-15.844,15.844-15.844h68.104C294.546,282.653,301.639,289.746,301.639,298.496z"/>
							
								<linearGradient id="SVGID_00000145055255247889581020000010167073374487004040_" gradientUnits="userSpaceOnUse" x1="215.9368" y1="281.3333" x2="215.9368" y2="368.7582">
								<stop  offset="0" style="stop-color:#303F9F"/>
								<stop  offset="1" style="stop-color:#1A237E"/>
							</linearGradient>
							<path style="opacity:0.29;fill:url(#SVGID_00000145055255247889581020000010167073374487004040_);" d="M230.025,282.653
								h-12.333c-8.75,0-15.844,7.093-15.844,15.844v72.407h12.333v-72.407C214.182,289.746,221.275,282.653,230.025,282.653z"/>
							
								<linearGradient id="SVGID_00000035501112855944089160000015147530186136228233_" gradientUnits="userSpaceOnUse" x1="284.377" y1="370.9037" x2="284.377" y2="288.3281">
								<stop  offset="0" style="stop-color:#FFFFFF"/>
								<stop  offset="1" style="stop-color:#AEBBFF"/>
							</linearGradient>
							<path style="fill:url(#SVGID_00000035501112855944089160000015147530186136228233_);" d="M295.964,299.915v70.988H272.79
								v-70.988c0-6.399,5.188-11.587,11.587-11.587l0,0C290.776,288.328,295.964,293.516,295.964,299.915z"/>
						</g>
						<g>
							
								<linearGradient id="SVGID_00000052096785637201459770000010138773727650695340_" gradientUnits="userSpaceOnUse" x1="201.8483" y1="370.6667" x2="201.8483" y2="300">
								<stop  offset="0.0104" style="stop-color:#512DA8"/>
								<stop  offset="1" style="stop-color:#9575CD"/>
							</linearGradient>
							<path style="fill:url(#SVGID_00000052096785637201459770000010138773727650695340_);" d="M251.744,313.963v56.941h-99.791
								v-56.941c0-8.75,7.093-15.844,15.844-15.844H235.9C244.65,298.119,251.744,305.213,251.744,313.963z"/>
							
								<linearGradient id="SVGID_00000170278426151077949370000015895493993517931191_" gradientUnits="userSpaceOnUse" x1="166.0412" y1="300" x2="166.0412" y2="371.3863">
								<stop  offset="0" style="stop-color:#9575CD"/>
								<stop  offset="0.9896" style="stop-color:#512DA8"/>
							</linearGradient>
							<path style="opacity:0.29;fill:url(#SVGID_00000170278426151077949370000015895493993517931191_);" d="M180.13,298.119
								h-12.333c-8.75,0-15.844,7.094-15.844,15.844v56.941h12.333v-56.941C164.286,305.213,171.379,298.119,180.13,298.119z"/>
							
								<linearGradient id="SVGID_00000104704430808404289830000006390772340902662020_" gradientUnits="userSpaceOnUse" x1="234.4814" y1="370.9037" x2="234.4814" y2="303.7947">
								<stop  offset="0" style="stop-color:#FFFFFF"/>
								<stop  offset="1" style="stop-color:#AEBBFF"/>
							</linearGradient>
							<path style="fill:url(#SVGID_00000104704430808404289830000006390772340902662020_);" d="M246.069,315.382v55.522h-23.174
								v-55.522c0-6.399,5.188-11.587,11.587-11.587h0C240.881,303.795,246.069,308.982,246.069,315.382z"/>
						</g>
					</g>
					<path style="fill:#C5CAE9;" d="M336.164,303.962c-0.617-0.102-1.246-0.168-1.892-0.168c-6.399,0-11.587,5.188-11.587,11.587
						v55.522h3.784v-55.522C326.469,309.628,330.667,304.867,336.164,303.962z"/>
					<path style="fill:#C5CAE9;" d="M286.269,288.496c-0.617-0.102-1.246-0.168-1.892-0.168c-6.399,0-11.587,5.188-11.587,11.587
						v70.988h3.784v-70.988C276.573,294.162,280.771,289.401,286.269,288.496z"/>
					<path style="fill:#C5CAE9;" d="M236.373,303.962c-0.617-0.102-1.246-0.168-1.892-0.168c-6.399,0-11.587,5.188-11.587,11.587
						v55.522h3.784v-55.522C226.678,309.628,230.876,304.867,236.373,303.962z"/>
				</g>
				
					<linearGradient id="SVGID_00000170273595881805068870000008195949358957370043_" gradientUnits="userSpaceOnUse" x1="187.6574" y1="176.4122" x2="397.3186" y2="176.4122" gradientTransform="matrix(-1 0 0 1 500 0)">
					<stop  offset="0" style="stop-color:#FFFFFF"/>
					<stop  offset="1" style="stop-color:#AEBBFF"/>
				</linearGradient>
				<path style="opacity:0.24;fill:url(#SVGID_00000170273595881805068870000008195949358957370043_);" d="M109.53,200.662
					l41.566-63.139c3.463-5.26,9.338-8.426,15.636-8.426H250h62.343c-47.294,0-183.029,37.52-209.64,94.632
					C102.422,215.137,104.993,207.163,109.53,200.662z"/>
			</g>
			<g>
				<text transform="matrix(1 0 0 1 170.6387 207.3965)" style="fill:#FFFFFF; font-size:39px;">bookstore</text>
				
					<text transform="matrix(1 0 0 1 185.8125 224.7298)" style="opacity:0.52;fill:#FFFFFF; font-family:'Montserrat-Medium'; font-size:12px; letter-spacing:2;">eat read love</text>
			</g>
		</g>
		
			<radialGradient id="SVGID_00000023970986814685058410000005027119820765127323_" cx="250.2341" cy="373.213" r="124.0152" gradientTransform="matrix(1.3548 0 0 0.1596 -89.0171 359.2299)" gradientUnits="userSpaceOnUse">
			<stop  offset="0" style="stop-color:#8C9EFF"/>
			<stop  offset="0.1801" style="stop-color:#ACB9FF"/>
			<stop  offset="0.4179" style="stop-color:#D0D7FF"/>
			<stop  offset="0.6411" style="stop-color:#EAEDFF"/>
			<stop  offset="0.8416" style="stop-color:#FAFAFF"/>
			<stop  offset="1" style="stop-color:#FFFFFF"/>
		</radialGradient>
		
			<ellipse style="opacity:0.67;fill:url(#SVGID_00000023970986814685058410000005027119820765127323_);" cx="250" cy="418.795" rx="168" ry="19.795"/>
	</g>
</g>
</svg>
